# xmcd CD database file
#
# Track frame offsets:
#	150
#	22098
#	42009
#	63247
#	86047
#	106837
#	126937
#	150044
#	172468
#	195148
#	217102
#	238483
#	258746
#	282247
#	311308
#	336157
#
# Disc length: 4785 seconds
#
# Revision: 0
# Processed by: cddbd v1.5.2PL0 Copyright (c) Steve Scherf et al.
# Submitted via: CDex 1.50
#
DISCID=e412af10
DTITLE=Marc Anthony - Recopilacion
DYEAR=2010
DGENRE=Salsa
TTITLE0=Contra la Corriente
TTITLE1=Hasta que te conoci
TTITLE2=La Luna Sobre Nuestro Amor
TTITLE3=Me Voy a Regalar
TTITLE4=Nadie Como Ella
TTITLE5=Necesito Amarte
TTITLE6=No Sabes Como Duele
TTITLE7=Palabras del Alma
TTITLE8=No  me ames
TTITLE9=Se Me Sigue Olvidando
TTITLE10=Si Te Vas
TTITLE11=Si Tu No Te Fueras
TTITLE12=Te Conozco Bien
TTITLE13=Y Hubo Alguien
TTITLE14=Escapemonos
TTITLE15=No Me Ames
EXTD=YEAR: 2010
EXTT0=
EXTT1=
EXTT2=
EXTT3=
EXTT4=
EXTT5=
EXTT6=
EXTT7=
EXTT8=
EXTT9=
EXTT10=
EXTT11=
EXTT12=
EXTT13=
EXTT14=
EXTT15=
PLAYORDER=
